<svg xmlns="http://www.w3.org/2000/svg" width="482" height="482" viewBox="0 0 482 482">
  <defs>
    <style>
      .cls-1 {
        fill: #fff;
      }

      .cls-2 {
        fill: #db001b;
        fill-rule: evenodd;
      }
    </style>
  </defs>
  <ellipse id="Elipse_2" data-name="Elipse 2" class="cls-1" cx="241" cy="240.5" rx="219" ry="219.5"/>
  <path id="Forma_6" data-name="Forma 6" class="cls-2" d="M146,212l95-69,94,69L299,323H183ZM241,84L177,30s64-20.333,128,0C299.667,34.333,241,84,241,84ZM92,193L60,115S23.588,161.4,20.094,237C59.65,212.365,92,193,92,193Zm298-1,32-77s38.306,51.833,39.906,122C402.706,199.967,390,192,390,192ZM333,368l84,6s-41,54.875-103,75C326.25,397.625,333,368,333,368Zm-184,0,20,82s-63.5-21.375-104-76C143,368.625,149,368,149,368Z"/>
</svg>
