<svg xmlns="http://www.w3.org/2000/svg" width="482" height="482" viewBox="0 0 482 482">
  <defs>
    <style>
      .cls-1 {
        fill: #fff;
      }

      .cls-1, .cls-2 {
        fill-rule: evenodd;
      }

      .cls-2 {
        fill: #db001b;
      }
    </style>
  </defs>
  <path id="Ret창ngulo_1" data-name="Ret창ngulo 1" class="cls-1" d="M99.642,377.028L315.993,458.5a38.682,38.682,0,0,0,49.831-22.466L472.5,153.69a38.579,38.579,0,0,0-22.555-49.725L233.6,22.491a38.681,38.681,0,0,0-49.831,22.466L77.088,327.3A38.579,38.579,0,0,0,99.642,377.028Z"/>
  <path id="Forma_3" data-name="Forma 3" class="cls-2" d="M227.427,364.677L174.591,247.753S144.8,184.3,212.4,152.837c58.3-14.058,81.236,37.635,81.236,37.635s55.274-28.223,89.152,33.182c21.442,64.93-43.644,90.763-43.644,90.763Z"/>
  <path id="Forma_2" data-name="Forma 2" class="cls-2" d="M298,176.857l-2.888-70.727s25.817,20.132,51.5,19.4c1.427-.041-48.146,51.118-48.146,51.118Z"/>
  <path id="Ret창ngulo_1_copiar" data-name="Ret창ngulo 1 copiar" class="cls-2" d="M41.824,78.27L259.9,32.045a42.654,42.654,0,0,1,50.6,32.8L371.542,352.1a42.6,42.6,0,0,1-32.9,50.5L120.564,448.831a42.655,42.655,0,0,1-50.6-32.805L8.928,128.772A42.6,42.6,0,0,1,41.824,78.27Z"/>
  <path id="Forma_3_copiar" data-name="Forma 3 copiar" class="cls-1" d="M162.211,110.577L92.37,218.159s-39.007,58.211,23,99.5c55.452,22.682,85.912-24.944,85.912-24.944s50.325,36.223,93.057-19.351c30.983-60.933-29.392-96.275-29.392-96.275Z"/>
  <path id="Forma_2_copiar" data-name="Forma 2 copiar" class="cls-1" d="M203.54,306.827l-13.535,69.46s28.537-16,53.794-11.4c1.4,0.255-39.827-57.776-39.827-57.776Z"/>
</svg>
