<svg id="LOGO_3" data-name="LOGO 3" xmlns="http://www.w3.org/2000/svg" width="1398" height="482" viewBox="0 0 1398 482">
  <defs>
    <style>
      .cls-1 {
        fill: #db001b;
      }

      .cls-1, .cls-2 {
        fill-rule: evenodd;
      }

      .cls-2 {
        fill: #fff;
      }
    </style>
  </defs>
  <path id="fundo" class="cls-1" d="M13.855,207.8L207.8,13.855a47.346,47.346,0,0,1,66.958,0L468.132,207.226a47.346,47.346,0,0,1,0,66.958L274.184,468.132a47.346,47.346,0,0,1-66.958,0L13.855,274.761A47.346,47.346,0,0,1,13.855,207.8Z"/>
  <path id="CORAÇÃO" class="cls-2" d="M240.5,90L137.716,192.821S80.751,248.17,139.78,308.494c56.139,38.164,101.133-7.462,101.133-7.462s47.264,51.966,107.738.414c48.709-60.25-9.907-113.6-9.907-113.6Z"/>
  <path id="SETA" class="cls-2" d="M240.087,317.2L208.715,391s35.411-11.032,62.331,0c1.5,0.613-30.546-73.384-30.546-73.384Z"/>
  <path id="FUN" class="cls-2" d="M984.673,136.086V53.536H847.09V423.953h95.25V280.019h39.687v-82.55H942.34V136.086h42.333Zm4.228-82.55V330.819q0,48.159,24.609,73.29t72.23,25.135q48.15,0,74.08-25.4t25.93-73.025V53.536H1090.5V338.228q0,8.47-3.17,8.466t-3.18-8.466V53.536H988.9Zm313.259,0,23.81,203.2h-5.29l-26.46-203.2H1192.09V423.953h95.25l-21.69-201.084h5.29l24.34,201.084h102.13V53.536h-95.25Z"/>
  <path id="_4" data-name="4" class="cls-1" d="M664.482,51H825.933V251.173h88.6V354.212H825.277V431H695.985V353.556H512.22V251.829Z"/>
</svg>
